<svg width="197" height="26" viewBox="0 0 197 26" fill="none" xmlns="http://www.w3.org/2000/svg">
<path d="M27.438 25.272H20.128L15.708 20.24L8.602 25.272H0.544L10.064 18.506H1.462L1.904 15.344H14.824L15.946 7.252H22.304L21.182 15.344H29.002L28.56 18.506H18.122L16.932 19.356H22.27L27.438 25.272ZM20.944 2.764H30.736L29.988 7.932H24.242L24.548 5.892H9.044L8.84 7.252H14.28L15.402 10.618H9.452L8.534 7.932H2.958L3.706 2.764H13.702L13.804 2.05L12.716 0.825999H21.216L20.944 2.764ZM12.852 14.596H6.936L5.678 11.23H11.594L12.852 14.596ZM36.7113 3.104L35.8613 2.118H48.7813L45.7213 24.082H33.7873L36.7113 3.104ZM50.3453 25.306L53.3713 22.178L55.4793 7.286H48.7133L49.1553 4.056H55.9213L56.2613 1.778L55.4453 0.825999H62.2113L61.7353 4.056H64.0133L63.5713 7.286H61.2933L59.0833 23.062C58.97 23.7193 58.664 24.2633 58.1653 24.694C57.6667 25.102 57.0887 25.306 56.4313 25.306H50.3453ZM52.8953 18.914H48.3733L48.3393 9.87H52.8613L52.8953 18.914ZM40.9953 20.852L41.8793 14.392H40.2813L39.3973 20.852H40.9953ZM40.7573 11.162H42.3553L43.1713 5.348H41.5733L40.7573 11.162ZM97.1547 1.472L94.1287 23.062C94.038 23.7193 93.7434 24.2633 93.2447 24.694C92.746 25.102 92.168 25.306 91.5107 25.306H86.6147L89.6067 22.178L92.0547 4.634H82.3307L78.9307 25.306H74.0007L77.8767 2.696L76.8227 1.472H97.1547ZM67.2007 25.204L69.2407 10.788H67.4727L67.9487 7.456H74.9187L73.1167 20.138L74.3407 19.662L73.8647 23.164L67.2007 25.204ZM90.1847 14.018L89.1647 21.328H80.4947L81.5147 14.018H90.1847ZM84.0987 10.38L84.3027 8.952H82.2967L82.6707 6.368H84.6767L84.8467 5.11H89.1987L89.0287 6.368H91.0687L90.6947 8.952H88.6547L88.4507 10.38H90.7967L90.4227 12.964H81.4467L81.8207 10.38H84.0987ZM74.2387 1.472L74.9867 6.164H70.1587L69.4107 1.472H74.2387ZM86.0027 19.152L86.4107 16.228H84.6767L84.2687 19.152H86.0027ZM115.404 2.764L115.506 2.118L114.418 0.825999H122.17L121.898 2.764H130.942L130.466 5.994H109.624L105.782 25.306H99.968L104.218 3.988L103.164 2.764H115.404ZM113.534 21.464L108.74 18.268L108.808 17.622L109.216 14.732H128.596L128.12 18.268L122.374 21.464L128.392 25.306H119.348L117.58 24.15L115.472 25.306H106.428L113.534 21.464ZM129.106 6.64L128.97 7.592H130.262L129.888 10.176H128.596L128.086 13.746H109.998L110.508 10.176H109.216L109.59 7.592H110.882L111.018 6.64H117.478L117.342 7.592H122.51L122.646 6.64H129.106ZM122 11.162L122.136 10.176H116.968L116.832 11.162H122ZM116.356 17.622L118.328 18.88L120.64 17.622H116.356ZM161.125 15.99L159.901 24.728H141.813L143.037 15.99H161.125ZM143.037 4.702L140.113 25.306H133.959L136.713 5.96L134.707 6.334L135.251 2.458L143.581 0.825999L143.037 4.702ZM150.585 3.41L150.789 2.118L149.701 0.825999H157.453L157.079 3.41H163.539L163.097 6.64H143.717L144.159 3.41H150.585ZM161.703 11.808L161.261 15.038H143.173L143.615 11.808H161.703ZM161.669 7.626L161.193 10.822H144.397L144.873 7.626H161.669ZM154.189 21.498L154.529 19.22H148.749L148.409 21.498H154.189ZM178.423 2.492L179.069 1.506L178.593 0.893998H186.481L185.427 2.492H196.681L194.743 16.092H170.807L172.541 3.818L171.691 2.492H178.423ZM174.445 24.694L175.499 17.146H181.245L180.633 21.43H188.453L189.949 20.07L189.303 24.694H174.445ZM190.357 17.418H195.525L195.763 24.694H190.595L190.357 17.418ZM172.405 24.694H167.339L169.651 17.418H174.717L172.405 24.694ZM182.707 16.806H187.773L187.977 20.716H182.877L182.707 16.806ZM189.133 12.148H177.675L177.539 13.27H188.997L189.133 12.148ZM178.491 6.368H189.949L190.119 5.28H178.661L178.491 6.368ZM178.015 9.768H189.473L189.609 8.748H178.151L178.015 9.768Z" fill="white"/>
</svg>
